<svg xmlns="http://www.w3.org/2000/svg" width="320" height="320" viewBox="0 0 320 320" role="img" aria-labelledby="title desc">
  <title id="title">Foto demo de perfil</title>
  <desc id="desc">Ilustracao ficticia usada nas miniaturas dos templates.</desc>
  <defs>
    <linearGradient id="bg" x1="0" x2="1" y1="0" y2="1">
      <stop offset="0%" stop-color="#fef3c7" />
      <stop offset="48%" stop-color="#f59e0b" />
      <stop offset="100%" stop-color="#0f766e" />
    </linearGradient>
    <linearGradient id="shirt" x1="0" x2="1" y1="0" y2="1">
      <stop offset="0%" stop-color="#0f172a" />
      <stop offset="100%" stop-color="#334155" />
    </linearGradient>
  </defs>
  <rect width="320" height="320" rx="64" fill="url(#bg)" />
  <circle cx="160" cy="116" r="58" fill="#fff7ed" opacity="0.96" />
  <path d="M82 290c18-60 60-92 78-92 20 0 60 32 78 92" fill="url(#shirt)" />
  <path d="M110 208c10 16 28 28 50 28 23 0 41-12 51-28" fill="#fff7ed" opacity="0.94" />
  <path d="M118 98c8-22 24-34 42-34 19 0 35 12 43 34" fill="#7c2d12" opacity="0.16" />
  <circle cx="138" cy="114" r="4" fill="#7c2d12" />
  <circle cx="182" cy="114" r="4" fill="#7c2d12" />
  <path d="M142 146c8 8 28 8 36 0" fill="none" stroke="#7c2d12" stroke-linecap="round" stroke-width="5" />
  <text x="160" y="292" text-anchor="middle" font-family="Arial, sans-serif" font-size="28" font-weight="700" fill="#f8fafc">HC</text>
</svg>
